<svg width="83" height="82" xmlns="http://www.w3.org/2000/svg" xmlns:xlink="http://www.w3.org/1999/xlink"><defs><path id="a" d="M.754 0H82.06v82H.754z"/><path id="c" d="M0 82h82.153V0H0z"/></defs><g fill="none" fill-rule="evenodd"><mask id="b" fill="#fff"><use xlink:href="#a"/></mask><path d="M41.407 82C63.859 82 82.06 63.642 82.06 41c0-22.644-18.2-41-40.653-41S.754 18.355.754 41c0 22.643 18.2 41 40.653 41" fill="#F7F7F7" mask="url(#b)"/><path d="M41.017 42.42c0-5.034-.535-9.15-5.525-9.15s-9.073 4.116-9.073 9.15v17.583h14.598V42.419z" fill="#72D3A2"/><path d="M40.061 21.577c0 4.736-3.808 8.578-8.505 8.578-4.695 0-8.505-3.842-8.505-8.578 0-4.737 3.81-8.577 8.505-8.577 4.697 0 8.505 3.84 8.505 8.577" fill="#FFF"/><path d="M40.061 21.577c0 4.736-3.808 8.578-8.505 8.578-4.695 0-8.505-3.842-8.505-8.578 0-4.737 3.81-8.577 8.505-8.577 4.697 0 8.505 3.84 8.505 8.577zm1.289 18.55c0-5.434-4.407-9.878-9.793-9.878-5.387 0-9.794 4.444-9.794 9.878v18.981H41.35V40.127zm0 18.982H21.764" stroke="#000" stroke-width="2.72"/><path d="M26.655 59.43v12.133" fill="#FFF"/><path d="M26.655 59.43v12.133" stroke="#000" stroke-width="2.72"/><path d="M35.985 59.43v12.133" fill="#FFF"/><path d="M35.985 59.43v12.133" stroke="#000" stroke-width="2.72"/><path d="M32.167 40.4s5.322 9.393 18.627 9.393" stroke="#000" stroke-width="2.72" stroke-linecap="round" stroke-linejoin="round"/><mask id="d" fill="#fff"><use xlink:href="#c"/></mask><path fill="#CFD8DC" mask="url(#d)" d="M47.097 49.793H67.13V25.587H47.097z"/><path stroke="#000" stroke-width="2.55" stroke-linecap="round" stroke-linejoin="round" mask="url(#d)" d="M47.097 49.793H67.13V25.587H47.097z"/><path stroke="#000" stroke-width="2.72" stroke-linecap="round" stroke-linejoin="round" mask="url(#d)" d="M54.664 25.588v4.025h4.897v-4.025"/><path d="M14.1 15.288c-.325 0-.65-.125-.897-.376l-3.197-3.222a1.29 1.29 0 010-1.813c.497-.5 1.301-.5 1.798 0l3.194 3.224c.497.5.497 1.31 0 1.81a1.255 1.255 0 01-.897.377M2.753 43.348H1.27c-.702 0-1.27-.574-1.27-1.28 0-.708.568-1.282 1.27-1.282h1.482c.701 0 1.27.574 1.27 1.281s-.569 1.281-1.27 1.281m78.131 0h-1.482c-.701 0-1.27-.574-1.27-1.28 0-.708.569-1.282 1.27-1.282h1.482c.701 0 1.27.574 1.27 1.281s-.569 1.281-1.27 1.281M4.342 74.205c-.376 0-.745-.165-.996-.483a1.289 1.289 0 01.204-1.8l7.199-5.766a1.26 1.26 0 011.785.205 1.289 1.289 0 01-.203 1.8l-7.2 5.766a1.26 1.26 0 01-.789.278" fill="#221F20" mask="url(#d)"/></g></svg>