<svg width="96" height="99" xmlns="http://www.w3.org/2000/svg" xmlns:xlink="http://www.w3.org/1999/xlink"><defs><path id="a" d="M0 98.77h95.557V0H0z"/></defs><g fill="none" fill-rule="evenodd"><path d="M40.86 98.77c22.557 0 40.843-18.341 40.843-40.966S63.417 16.84 40.86 16.84C18.304 16.839.018 35.179.018 57.804.018 80.43 18.304 98.77 40.86 98.77" fill="#F7F7F7"/><mask id="b" fill="#fff"><use xlink:href="#a"/></mask><path fill="#72D3A2" mask="url(#b)" d="M11.92 77.924h56.708v-38.53H11.92z"/><path fill="#FFF" mask="url(#b)" d="M11.892 48.582h56.047v-9.188H11.892zM55.13 67.9h5.248v-5.265H55.13z"/><path d="M15.51 39.393a2.994 2.994 0 00-2.985 2.998v31.971a2.994 2.994 0 002.985 2.998h49.32a2.994 2.994 0 002.986-2.998V42.391a2.994 2.994 0 00-2.986-2.998H15.51zm49.32 40.201H15.51c-2.875 0-5.213-2.347-5.213-5.232V42.391c0-2.885 2.338-5.232 5.213-5.232h49.32c2.876 0 5.212 2.347 5.212 5.232v31.971c0 2.885-2.336 5.232-5.212 5.232z" fill="#000" mask="url(#b)"/><path d="M15.51 39.393a2.994 2.994 0 00-2.985 2.998v31.971a2.994 2.994 0 002.985 2.998h49.32a2.994 2.994 0 002.986-2.998V42.391a2.994 2.994 0 00-2.986-2.998H15.51zm49.32 40.201H15.51c-2.875 0-5.213-2.347-5.213-5.232V42.391c0-2.885 2.338-5.232 5.213-5.232h49.32c2.876 0 5.212 2.347 5.212 5.232v31.971c0 2.885-2.336 5.232-5.212 5.232z" stroke="#000" stroke-width=".85" mask="url(#b)"/><path fill="#000" mask="url(#b)" d="M10.798 50.815h57.141V48.58H10.798z"/><path stroke="#000" stroke-width=".85" mask="url(#b)" d="M10.798 50.815h57.141V48.58H10.798z"/><path d="M38.042 63.178H18.649c-.614 0-1.113-.5-1.113-1.116 0-.618.499-1.118 1.113-1.118h19.393c.614 0 1.113.5 1.113 1.118 0 .616-.499 1.116-1.113 1.116" fill="#000" mask="url(#b)"/><path d="M38.042 63.178H18.649c-.614 0-1.113-.5-1.113-1.116 0-.618.499-1.118 1.113-1.118h19.393c.614 0 1.113.5 1.113 1.118 0 .616-.499 1.116-1.113 1.116z" stroke="#000" stroke-width=".85" mask="url(#b)"/><path d="M61.08 63.178h-6.46a1.116 1.116 0 010-2.234h6.462c.614 0 1.113.5 1.113 1.118 0 .616-.5 1.116-1.113 1.116" fill="#000" mask="url(#b)"/><path d="M61.08 63.178h-6.46a1.116 1.116 0 010-2.234h6.462c.614 0 1.113.5 1.113 1.118 0 .616-.5 1.116-1.113 1.116z" stroke="#000" stroke-width=".85" mask="url(#b)"/><path d="M61.08 69.659h-6.46a1.114 1.114 0 01-1.115-1.116c0-.618.499-1.118 1.115-1.118h6.462c.614 0 1.113.5 1.113 1.118 0 .618-.5 1.116-1.113 1.116" fill="#000" mask="url(#b)"/><path d="M61.08 69.659h-6.46a1.114 1.114 0 01-1.115-1.116c0-.618.499-1.118 1.115-1.118h6.462c.614 0 1.113.5 1.113 1.118 0 .618-.5 1.116-1.113 1.116z" stroke="#000" stroke-width=".85" mask="url(#b)"/><path d="M30.815 69.46H18.65a1.114 1.114 0 01-1.114-1.116c0-.618.498-1.118 1.114-1.118h12.165c.614 0 1.112.5 1.112 1.118 0 .618-.498 1.117-1.112 1.117" fill="#000" mask="url(#b)"/><path d="M30.815 69.46H18.65a1.114 1.114 0 01-1.114-1.116c0-.618.498-1.118 1.114-1.118h12.165c.614 0 1.112.5 1.112 1.118 0 .618-.498 1.117-1.112 1.117z" stroke="#000" stroke-width=".85" mask="url(#b)"/><path d="M59.967 68.542v-6.48a1.114 1.114 0 112.226 0v6.48a1.113 1.113 0 11-2.226 0" fill="#000" mask="url(#b)"/><path d="M59.967 68.542v-6.48a1.114 1.114 0 112.226 0v6.48a1.113 1.113 0 11-2.226 0z" stroke="#000" stroke-width=".85" mask="url(#b)"/><path d="M53.505 68.542v-6.48a1.115 1.115 0 112.227-.001v6.481a1.114 1.114 0 11-2.227 0" fill="#000" mask="url(#b)"/><path d="M53.505 68.542v-6.48a1.115 1.115 0 112.227-.001v6.481a1.114 1.114 0 11-2.227 0z" stroke="#000" stroke-width=".85" mask="url(#b)"/><path d="M78.54 0c-9.399 0-17.017 7.643-17.017 17.069 0 3.512 1.06 6.776 2.872 9.49a4.59 4.59 0 00-.706 1.214c-.211.55-.317.826-.526 1.377-1.006 2.63.317 3.957 2.939 2.946l2.699-1.043a16.881 16.881 0 009.739 3.085c9.399 0 17.018-7.642 17.018-17.07C95.558 7.644 87.938 0 78.54 0" fill="#2B3336" mask="url(#b)"/><path fill="#2B3336" mask="url(#b)" d="M73.635 24.276h10.92v-7.758h-10.92z"/><path d="M73.635 24.276h10.92v-7.758h-10.92v7.758zm12.031 2.234H72.522c-.616 0-1.113-.5-1.113-1.118v-9.988c0-.618.497-1.117 1.113-1.117h13.144c.616 0 1.115.499 1.115 1.117v9.988c0 .618-.499 1.118-1.115 1.118z" fill="#FFF" mask="url(#b)"/><path d="M75.627 14.287h6.936v-1.81c0-1.925-1.557-3.492-3.468-3.492s-3.468 1.567-3.468 3.492v1.81zm8.047 2.232h-9.16a1.114 1.114 0 01-1.115-1.116v-2.926c0-3.156 2.556-5.726 5.696-5.726 3.14 0 5.694 2.57 5.694 5.726v2.926c0 .618-.499 1.116-1.115 1.116zm-4.58 6.197c-.46 0-.832-.422-.832-.94v-2.354c0-.52.373-.939.832-.939.46 0 .832.42.832.939v2.354c0 .518-.372.94-.832.94" fill="#FFF" mask="url(#b)"/><path d="M80.31 19.119c0 .676-.544 1.222-1.216 1.222a1.219 1.219 0 01-1.217-1.222c0-.674.545-1.22 1.217-1.22s1.217.546 1.217 1.22" fill="#FFF" mask="url(#b)"/><path d="M9.173 24.103c-.327 0-.654-.125-.902-.376L5.06 20.508a1.283 1.283 0 010-1.81c.498-.5 1.307-.5 1.805 0l3.21 3.22a1.281 1.281 0 01-.902 2.185M2.766 60.578h-1.49A1.279 1.279 0 010 59.298c0-.707.572-1.28 1.276-1.28h1.49c.704 0 1.276.573 1.276 1.28a1.28 1.28 0 01-1.276 1.28m79.456-.214h-1.49a1.279 1.279 0 01-1.275-1.28c0-.706.571-1.28 1.276-1.28h1.489a1.28 1.28 0 011.276 1.28c0 .707-.572 1.28-1.276 1.28M5.95 96.01a1.282 1.282 0 01-.951-2.222l3.415-2.833a1.27 1.27 0 011.802.08c.476.524.44 1.333-.08 1.81L6.722 95.68a1.27 1.27 0 01-.772.33" fill="#221F20" mask="url(#b)"/></g></svg>