<svg width="85" height="89" xmlns="http://www.w3.org/2000/svg" xmlns:xlink="http://www.w3.org/1999/xlink"><defs><path id="a" d="M1.594.85h2.55v4.032h-2.55z"/></defs><g fill="none" fill-rule="evenodd"><path d="M43.669 86.028c22.533 0 40.8-18.246 40.8-40.755 0-22.508-18.267-40.754-40.8-40.754-22.534 0-40.8 18.246-40.8 40.754 0 22.509 18.266 40.755 40.8 40.755" fill="#F7F7F7"/><path fill="#72D3A2" d="M28.132 80.192l-3.714-11.627-11.94 2.602 19.18-33.183 15.654 9.027z"/><path stroke="#000" stroke-width="2.89" stroke-linecap="round" stroke-linejoin="round" d="M28.132 80.192l-3.714-11.627-11.94 2.602 19.18-33.183 15.654 9.027z"/><path fill="#72D3A2" d="M75.066 71.166l-11.938-2.6-3.716 11.626L40.234 47.01l15.652-9.027z"/><path stroke="#000" stroke-width="2.89" stroke-linecap="round" stroke-linejoin="round" d="M75.066 71.166l-11.938-2.6-3.716 11.626L40.234 47.01l15.652-9.027z"/><path d="M66.304 32.292c0 12.418-10.078 22.485-22.51 22.485-12.43 0-22.508-10.067-22.508-22.485 0-12.417 10.078-22.483 22.508-22.483 12.432 0 22.51 10.066 22.51 22.483" fill="#72D3A2"/><path d="M66.304 32.292c0 12.418-10.078 22.485-22.51 22.485-12.43 0-22.508-10.067-22.508-22.485 0-12.417 10.078-22.483 22.508-22.483 12.432 0 22.51 10.066 22.51 22.483z" stroke="#000" stroke-width="2.89"/><path d="M57.219 32.292c0 7.405-6.011 13.408-13.423 13.408-7.414 0-13.425-6.003-13.425-13.408 0-7.404 6.011-13.408 13.425-13.408 7.412 0 13.423 6.004 13.423 13.408" fill="#FFF"/><path d="M57.219 32.292c0 7.405-6.011 13.408-13.423 13.408-7.414 0-13.425-6.003-13.425-13.408 0-7.404 6.011-13.408 13.425-13.408 7.412 0 13.423 6.004 13.423 13.408z" stroke="#000" stroke-width="2.89" stroke-linecap="round" stroke-linejoin="round"/><path d="M44.558 24.785l1.23 3.97c.104.33.41.557.757.557h3.57c.731 0 1.071.907.52 1.387l-2.934 2.553a.793.793 0 00-.23.857l1.422 4.082c.256.737-.599 1.36-1.224.892l-3.404-2.549a.794.794 0 00-.936-.012l-3.404 2.437c-.632.45-1.47-.182-1.207-.912l1.404-3.902a.79.79 0 00-.222-.863l-2.946-2.584c-.55-.483-.21-1.386.521-1.386h3.58a.796.796 0 00.759-.557l1.23-3.97c.23-.742 1.284-.742 1.514 0" fill="#EA3F34"/><path d="M75.075 20.969c.039-.323.2-.632.477-.85l3.565-2.8a1.274 1.274 0 111.576 2l-3.565 2.803a1.275 1.275 0 01-2.053-1.153" fill="#221F20"/><g transform="translate(40.8 -.15)"><mask id="b" fill="#fff"><use xlink:href="#a"/></mask><path d="M1.594 3.608V2.122a1.275 1.275 0 012.55 0v1.486a1.275 1.275 0 01-2.55 0" fill="#221F20" mask="url(#b)"/></g><path d="M4.463 46.547H1.275a1.275 1.275 0 110-2.547h3.188a1.275 1.275 0 110 2.547m37.931 40.33v-1.486a1.275 1.275 0 012.55 0v1.486a1.275 1.275 0 01-2.55 0" fill="#221F20"/></g></svg>